<svg xmlns="http://www.w3.org/2000/svg" xmlns:xlink="http://www.w3.org/1999/xlink" width="1080" zoomAndPan="magnify" viewBox="0 0 810 809.999993" height="1080" preserveAspectRatio="xMidYMid meet" version="1.0"><defs><clipPath id="cc393d9251"><path d="M 24.023438 26.078125 L 781.777344 26.078125 L 781.777344 783.832031 L 24.023438 783.832031 Z M 24.023438 26.078125 " clip-rule="nonzero"/></clipPath><clipPath id="f658e4b6e1"><path d="M 402.902344 26.078125 C 193.652344 26.078125 24.023438 195.707031 24.023438 404.957031 C 24.023438 614.203125 193.652344 783.832031 402.902344 783.832031 C 612.148438 783.832031 781.777344 614.203125 781.777344 404.957031 C 781.777344 195.707031 612.148438 26.078125 402.902344 26.078125 Z M 402.902344 26.078125 " clip-rule="nonzero"/></clipPath><clipPath id="39e6aacadc"><path d="M 16.800781 272.488281 L 793.457031 272.488281 L 793.457031 630.007812 L 16.800781 630.007812 Z M 16.800781 272.488281 " clip-rule="nonzero"/></clipPath></defs><g clip-path="url(#cc393d9251)"><g clip-path="url(#f658e4b6e1)"><path fill="#373951" d="M 24.023438 26.078125 L 781.777344 26.078125 L 781.777344 783.832031 L 24.023438 783.832031 Z M 24.023438 26.078125 " fill-opacity="1" fill-rule="nonzero"/></g></g><g clip-path="url(#39e6aacadc)"><path fill="#ffffff" d="M -21.617188 630.007812 L 95.390625 630.007812 L 536.515625 438.113281 L 977.503906 630.007812 L 1094.515625 630.007812 L 536.515625 272.488281 L 364.363281 382.863281 L 364.363281 290.34375 C 364.363281 280.511719 356.335938 272.488281 346.5 272.488281 L 279.96875 272.488281 C 270.132812 272.488281 262.105469 280.511719 262.105469 290.34375 L 262.105469 448.335938 Z M -21.617188 630.007812 " fill-opacity="1" fill-rule="nonzero"/></g></svg>