<svg xmlns="http://www.w3.org/2000/svg" xmlns:xlink="http://www.w3.org/1999/xlink" width="800" zoomAndPan="magnify" viewBox="0 0 600 187.499995" height="250" preserveAspectRatio="xMidYMid meet" version="1.0"><defs><g/><clipPath id="c08dd4b611"><path d="M 38.847656 35.320312 L 154.835938 35.320312 L 154.835938 151.304688 L 38.847656 151.304688 Z M 38.847656 35.320312 " clip-rule="nonzero"/></clipPath><clipPath id="c6895d503a"><path d="M 96.84375 35.320312 C 64.8125 35.320312 38.847656 61.285156 38.847656 93.3125 C 38.847656 125.34375 64.8125 151.304688 96.84375 151.304688 C 128.871094 151.304688 154.835938 125.34375 154.835938 93.3125 C 154.835938 61.285156 128.871094 35.320312 96.84375 35.320312 Z M 96.84375 35.320312 " clip-rule="nonzero"/></clipPath><clipPath id="3ef84cf19d"><path d="M 37.742188 73.035156 L 156.621094 73.035156 L 156.621094 127.761719 L 37.742188 127.761719 Z M 37.742188 73.035156 " clip-rule="nonzero"/></clipPath></defs><g fill="#373951" fill-opacity="1"><g transform="translate(215.759503, 114.070803)"><g><path d="M 27.625 0.359375 L 27.625 -24.65625 C 27.625 -26.019531 27.257812 -27.085938 26.53125 -27.859375 C 25.800781 -28.640625 24.796875 -29.03125 23.515625 -29.03125 L 4.09375 -29.03125 L 4.09375 -37.859375 L 25.4375 -37.859375 C 29.195312 -37.859375 32.113281 -36.796875 34.1875 -34.671875 C 36.257812 -32.554688 37.296875 -29.617188 37.296875 -25.859375 L 37.296875 -0.28125 Z M 4.453125 0.359375 L 4.453125 -19 C 6.097656 -19.144531 7.742188 -19.273438 9.390625 -19.390625 C 11.046875 -19.503906 12.671875 -19.585938 14.265625 -19.640625 L 14.265625 -0.28125 Z M 4.453125 0.359375 "/></g></g></g><g fill="#373951" fill-opacity="1"><g transform="translate(255.034982, 114.070803)"><g><path d="M 2.609375 0 L 3.25 -8.828125 L 12.859375 -8.828125 C 16.390625 -8.828125 18.941406 -9.6875 20.515625 -11.40625 C 22.097656 -13.125 22.890625 -15.890625 22.890625 -19.703125 C 22.890625 -25.921875 20.414062 -29.03125 15.46875 -29.03125 L 4.03125 -29.03125 L 4.03125 -37.859375 L 15.6875 -37.859375 C 21.476562 -37.859375 25.75 -36.410156 28.5 -33.515625 C 31.257812 -30.617188 32.640625 -26.132812 32.640625 -20.0625 C 32.640625 -13.039062 30.96875 -7.941406 27.625 -4.765625 C 24.28125 -1.585938 18.882812 0 11.4375 0 Z M 2.609375 0 "/></g></g></g><g fill="#373951" fill-opacity="1"><g transform="translate(288.517996, 114.070803)"><g><path d="M 19.28125 0.359375 L 19.28125 -24.515625 C 19.28125 -25.878906 18.90625 -26.972656 18.15625 -27.796875 C 17.40625 -28.617188 16.367188 -29.03125 15.046875 -29.03125 L 1.765625 -29.03125 L 1.765625 -37.859375 L 17.09375 -37.859375 C 20.863281 -37.859375 23.785156 -36.796875 25.859375 -34.671875 C 27.929688 -32.554688 28.96875 -29.617188 28.96875 -25.859375 L 28.96875 -0.28125 Z M 19.28125 0.359375 "/></g></g></g><g fill="#373951" fill-opacity="1"><g transform="translate(319.457965, 114.070803)"><g><path d="M 18.515625 0.359375 L 18.515625 -29.03125 L 1.40625 -29.03125 L 1.40625 -37.859375 L 35.03125 -37.859375 L 34.046875 -29.03125 L 28.1875 -29.03125 L 28.1875 -0.28125 Z M 18.515625 0.359375 "/></g></g></g><g fill="#373951" fill-opacity="1"><g transform="translate(354.495054, 114.070803)"><g><path d="M 27.625 0.359375 L 27.625 -24.65625 C 27.625 -26.019531 27.257812 -27.085938 26.53125 -27.859375 C 25.800781 -28.640625 24.796875 -29.03125 23.515625 -29.03125 L 4.09375 -29.03125 L 4.09375 -37.859375 L 25.4375 -37.859375 C 29.195312 -37.859375 32.113281 -36.796875 34.1875 -34.671875 C 36.257812 -32.554688 37.296875 -29.617188 37.296875 -25.859375 L 37.296875 -0.28125 Z M 4.453125 0.359375 L 4.453125 -19 C 6.097656 -19.144531 7.742188 -19.273438 9.390625 -19.390625 C 11.046875 -19.503906 12.671875 -19.585938 14.265625 -19.640625 L 14.265625 -0.28125 Z M 4.453125 0.359375 "/></g></g></g><g fill="#373951" fill-opacity="1"><g transform="translate(393.770535, 114.070803)"><g/></g></g><g fill="#373951" fill-opacity="1"><g transform="translate(405.779047, 114.070803)"><g><path d="M 8.828125 0 L 8.828125 -28.46875 C 7.554688 -28.613281 6.269531 -28.8125 4.96875 -29.0625 C 3.675781 -29.320312 2.441406 -29.617188 1.265625 -29.953125 L 2.46875 -38.5625 C 6.332031 -37.625 10.054688 -37.15625 13.640625 -37.15625 C 17.210938 -37.15625 20.929688 -37.625 24.796875 -38.5625 L 26 -29.953125 C 24.863281 -29.617188 23.632812 -29.320312 22.3125 -29.0625 C 21 -28.8125 19.734375 -28.613281 18.515625 -28.46875 L 18.515625 0 Z M 8.828125 0 "/></g></g></g><g fill="#373951" fill-opacity="1"><g transform="translate(431.915517, 114.070803)"><g><path d="M 2.609375 0 L 3.25 -8.828125 L 12.859375 -8.828125 C 16.390625 -8.828125 18.941406 -9.6875 20.515625 -11.40625 C 22.097656 -13.125 22.890625 -15.890625 22.890625 -19.703125 C 22.890625 -25.921875 20.414062 -29.03125 15.46875 -29.03125 L 4.03125 -29.03125 L 4.03125 -37.859375 L 15.6875 -37.859375 C 21.476562 -37.859375 25.75 -36.410156 28.5 -33.515625 C 31.257812 -30.617188 32.640625 -26.132812 32.640625 -20.0625 C 32.640625 -13.039062 30.96875 -7.941406 27.625 -4.765625 C 24.28125 -1.585938 18.882812 0 11.4375 0 Z M 2.609375 0 "/></g></g></g><g fill="#373951" fill-opacity="1"><g transform="translate(465.398523, 114.070803)"><g><path d="M 19.28125 0.359375 L 19.28125 -24.515625 C 19.28125 -25.878906 18.90625 -26.972656 18.15625 -27.796875 C 17.40625 -28.617188 16.367188 -29.03125 15.046875 -29.03125 L 1.765625 -29.03125 L 1.765625 -37.859375 L 17.09375 -37.859375 C 20.863281 -37.859375 23.785156 -36.796875 25.859375 -34.671875 C 27.929688 -32.554688 28.96875 -29.617188 28.96875 -25.859375 L 28.96875 -0.28125 Z M 19.28125 0.359375 "/></g></g></g><g fill="#373951" fill-opacity="1"><g transform="translate(496.338498, 114.070803)"><g><path d="M 3.609375 0.21875 L 9.953125 -28.96875 L 2.96875 -30.453125 L 4.796875 -38.921875 L 10.453125 -37.859375 L 26.484375 -37.859375 C 30.960938 -37.859375 34.4375 -36.632812 36.90625 -34.1875 C 39.382812 -31.738281 40.625 -28.300781 40.625 -23.875 L 40.625 0 L 21.40625 0 L 21.40625 -8.828125 L 30.9375 -8.828125 L 30.9375 -23.03125 C 30.9375 -24.957031 30.40625 -26.460938 29.34375 -27.546875 C 28.289062 -28.628906 26.820312 -29.171875 24.9375 -29.171875 L 19.84375 -29.171875 L 13.703125 0.21875 Z M 3.609375 0.21875 "/></g></g></g><g clip-path="url(#c08dd4b611)"><g clip-path="url(#c6895d503a)"><path fill="#373951" d="M 38.847656 35.320312 L 154.835938 35.320312 L 154.835938 151.304688 L 38.847656 151.304688 Z M 38.847656 35.320312 " fill-opacity="1" fill-rule="nonzero"/></g></g><g clip-path="url(#3ef84cf19d)"><path fill="#ffffff" d="M 31.863281 127.761719 L 49.773438 127.761719 L 117.292969 98.386719 L 184.792969 127.761719 L 202.707031 127.761719 L 117.292969 73.035156 L 90.941406 89.929688 L 90.941406 75.769531 C 90.941406 74.265625 89.714844 73.035156 88.207031 73.035156 L 78.023438 73.035156 C 76.519531 73.035156 75.292969 74.265625 75.292969 75.769531 L 75.292969 99.953125 Z M 31.863281 127.761719 " fill-opacity="1" fill-rule="nonzero"/></g></svg>